<svg xmlns="http://www.w3.org/2000/svg" version="1.1" xmlns:xlink="http://www.w3.org/1999/xlink" xmlns:svgjs="http://svgjs.dev/svgjs" width="1500" height="1500" viewBox="0 0 1500 1500"><rect width="1500" height="1500" fill="#000000"></rect><g transform="matrix(0.6666666666666666,0,0,0.6666666666666666,249.39393939393938,586.5319229818112)"><svg viewBox="0 0 396 130" data-background-color="#ffffff" preserveAspectRatio="xMidYMid meet" height="492" width="1500" xmlns="http://www.w3.org/2000/svg" xmlns:xlink="http://www.w3.org/1999/xlink"><g id="tight-bounds" transform="matrix(1,0,0,1,0.2400000000000091,-0.2108231330349497)"><svg viewBox="0 0 395.52 130.42164626606987" height="130.42164626606987" width="395.52"><g><svg viewBox="0 0 670.3103007895081 221.0330019672131" height="130.42164626606987" width="395.52"><g transform="matrix(1,0,0,1,274.7903007895082,30.547976393442624)"><svg viewBox="0 0 395.52 159.93704918032785" height="159.93704918032785" width="395.52"><g id="textblocktransform"><svg viewBox="0 0 395.52 159.93704918032785" height="159.93704918032785" width="395.52" id="textblock"><g><svg viewBox="0 0 395.52 159.93704918032785" height="159.93704918032785" width="395.52"><g transform="matrix(1,0,0,1,0,0)"><svg width="395.52" viewBox="2.6 -25.6 64.04 25.900000000000002" height="159.93704918032785" data-palette-color="#fd5526"><path d="M8.9 0L8.9 0Q6.2 0 4.53-1.78 2.85-3.55 2.85-6.45L2.85-6.45 3.15-12.2 2.6-24.2 9.3-25.45 8.65-10.25Q8.65-8.1 9.43-7.1 10.2-6.1 11.9-6.1 13.6-6.1 16.6-7.8L16.6-7.8 16.6-10.8 16.05-23.95 22.8-25.2 22.2-12.7 22.25-8.6Q22.25-5.4 23.9-2.15L23.9-2.15 18.7 0.15Q17.05-3.1 16.7-5.05L16.7-5.05Q12.2 0 8.9 0ZM26.7 0.3L27.55-4.95 38.1-20 27.05-19.25 28.2-25.55 36.75-25 45.1-25.6 44.25-20.4 33.65-5.3 45.8-6 44.7 0.3 36.2-0.25 26.7 0.3ZM47.55 0.3L48.39-4.95 58.95-20 47.89-19.25 49.05-25.55 57.59-25 65.94-25.6 65.09-20.4 54.49-5.3 66.64-6 65.55 0.3 57.05-0.25 47.55 0.3Z" opacity="1" transform="matrix(1,0,0,1,0,0)" fill="#ffffff" class="wordmark-text-0" data-fill-palette-color="primary" id="text-0"></path></svg></g></svg></g></svg></g></svg></g><g><svg viewBox="0 0 237.0330019672131 221.0330019672131" height="221.0330019672131" width="237.0330019672131"><g><svg xmlns="http://www.w3.org/2000/svg" xmlns:xlink="http://www.w3.org/1999/xlink" version="1.1" x="8" y="0" viewBox="0 0 100 100" style="enable-background:new 0 0 100 100;" xml:space="preserve" height="221.0330019672131" width="221.0330019672131" class="icon-icon-0" data-fill-palette-color="accent" id="icon-0"><g fill="#fd5526" data-fill-palette-color="accent"><path d="M74.988 37.5C74.988 51.307 63.806 62.5 50 62.5 50 55.604 44.396 50 37.5 50H24.988C12.5 50 0 42.969 0 25 0 6.641 12.5 0 24.988 0H50C62.5 0 74.988 7.745 74.988 25z" fill="#ffffff" data-fill-palette-color="accent"></path></g><path d="M37.5 37.5" fill="#ffffff" data-fill-palette-color="accent"></path><path d="M37.5 37.5" fill="#ffffff" data-fill-palette-color="accent"></path><g fill="#fd5526" data-fill-palette-color="accent"><g fill="#fd5526" data-fill-palette-color="accent"><path d="M81.189 38.165C80.822 55.078 66.992 68.75 50 68.75H43.75V62.5A6.26 6.26 0 0 0 37.5 56.25H25.623A31.3 31.3 0 0 0 24.988 62.5V75C24.988 88.807 36.193 100 50 100 50 93.091 55.604 87.5 62.5 87.5H74.988C87.5 87.5 100 80.469 100 62.5 100 47.211 91.297 40.125 81.189 38.165" fill="#ffffff" data-fill-palette-color="accent"></path></g></g></svg></g></svg></g></svg></g><defs></defs></svg><rect width="395.52" height="130.42164626606987" fill="none" stroke="none" visibility="hidden"></rect></g></svg></g></svg>